<svg width="469" height="4" viewBox="0 0 469 4" fill="none" xmlns="http://www.w3.org/2000/svg">
<path d="M0 0H1V4H0V0Z" fill="#C4C4C4"/>
<path d="M9 0H10V4H9V0Z" fill="#C4C4C4"/>
<path d="M18 0H19V4H18V0Z" fill="#C4C4C4"/>
<path d="M27 0H28V4H27V0Z" fill="#C4C4C4"/>
<path d="M36 0H37V4H36V0Z" fill="#C4C4C4"/>
<path d="M45 0H46V4H45V0Z" fill="#C4C4C4"/>
<path d="M54 0H55V4H54V0Z" fill="#C4C4C4"/>
<path d="M63 0H64V4H63V0Z" fill="#C4C4C4"/>
<path d="M72 0H73V4H72V0Z" fill="#C4C4C4"/>
<path d="M81 0H82V4H81V0Z" fill="#C4C4C4"/>
<path d="M90 0H91V4H90V0Z" fill="#C4C4C4"/>
<path d="M99 0H100V4H99V0Z" fill="#C4C4C4"/>
<path d="M108 0H109V4H108V0Z" fill="#C4C4C4"/>
<path d="M117 0H118V4H117V0Z" fill="#C4C4C4"/>
<path d="M126 0H127V4H126V0Z" fill="#C4C4C4"/>
<path d="M135 0H136V4H135V0Z" fill="#C4C4C4"/>
<path d="M144 0H145V4H144V0Z" fill="#C4C4C4"/>
<path d="M153 0H154V4H153V0Z" fill="#C4C4C4"/>
<path d="M162 0H163V4H162V0Z" fill="#C4C4C4"/>
<path d="M171 0H172V4H171V0Z" fill="#C4C4C4"/>
<path d="M180 0H181V4H180V0Z" fill="#C4C4C4"/>
<path d="M189 0H190V4H189V0Z" fill="#C4C4C4"/>
<path d="M198 0H199V4H198V0Z" fill="#C4C4C4"/>
<path d="M207 0H208V4H207V0Z" fill="#C4C4C4"/>
<path d="M216 0H217V4H216V0Z" fill="#C4C4C4"/>
<path d="M225 0H226V4H225V0Z" fill="#C4C4C4"/>
<path d="M234 0H235V4H234V0Z" fill="#C4C4C4"/>
<path d="M243 0H244V4H243V0Z" fill="#C4C4C4"/>
<path d="M252 0H253V4H252V0Z" fill="#C4C4C4"/>
<path d="M261 0H262V4H261V0Z" fill="#C4C4C4"/>
<path d="M270 0H271V4H270V0Z" fill="#C4C4C4"/>
<path d="M279 0H280V4H279V0Z" fill="#C4C4C4"/>
<path d="M288 0H289V4H288V0Z" fill="#C4C4C4"/>
<path d="M297 0H298V4H297V0Z" fill="#C4C4C4"/>
<path d="M306 0H307V4H306V0Z" fill="#C4C4C4"/>
<path d="M315 0H316V4H315V0Z" fill="#C4C4C4"/>
<path d="M324 0H325V4H324V0Z" fill="#C4C4C4"/>
<path d="M333 0H334V4H333V0Z" fill="#C4C4C4"/>
<path d="M342 0H343V4H342V0Z" fill="#C4C4C4"/>
<path d="M351 0H352V4H351V0Z" fill="#C4C4C4"/>
<path d="M360 0H361V4H360V0Z" fill="#C4C4C4"/>
<path d="M369 0H370V4H369V0Z" fill="#C4C4C4"/>
<path d="M378 0H379V4H378V0Z" fill="#C4C4C4"/>
<path d="M387 0H388V4H387V0Z" fill="#C4C4C4"/>
<path d="M396 0H397V4H396V0Z" fill="#C4C4C4"/>
<path d="M405 0H406V4H405V0Z" fill="#C4C4C4"/>
<path d="M414 0H415V4H414V0Z" fill="#C4C4C4"/>
<path d="M423 0H424V4H423V0Z" fill="#C4C4C4"/>
<path d="M432 0H433V4H432V0Z" fill="#C4C4C4"/>
<path d="M441 0H442V4H441V0Z" fill="#C4C4C4"/>
<path d="M450 0H451V4H450V0Z" fill="#C4C4C4"/>
<path d="M459 0H460V4H459V0Z" fill="#C4C4C4"/>
<path d="M468 0H469V4H468V0Z" fill="#C4C4C4"/>
</svg>
