<?xml version="1.0" encoding="utf-8"?>
<!-- Generator: Adobe Illustrator 26.3.1, SVG Export Plug-In . SVG Version: 6.00 Build 0)  -->
<svg version="1.1" id="레이어_1" xmlns="http://www.w3.org/2000/svg" xmlns:xlink="http://www.w3.org/1999/xlink" x="0px"
	 y="0px" viewBox="0 0 10 20" style="enable-background:new 0 0 10 20;" xml:space="preserve">
<style type="text/css">
	.st0{fill:#5E5E5E;}
</style>
<path class="st0" d="M3,9.8C2.9,9.9,2.9,10,3,10.1l5.9,6.1c0.1,0.1,0.2,0.2,0.2,0.3c0,0.1,0,0.2,0,0.4v2.4c0,0.3,0,0.5-0.1,0.5
	s-0.3-0.1-0.5-0.4l-7.8-8.2C0.6,11.1,0.5,11,0.5,11c0,0,0-0.1,0-0.3V9.3c0-0.2,0-0.3,0-0.3c0-0.1,0.1-0.2,0.2-0.3l7.8-8.2
	C8.8,0.2,8.9,0.1,9,0.1c0.1,0,0.1,0.2,0.1,0.5V3c0,0.2,0,0.4,0,0.4c0,0.1-0.1,0.2-0.2,0.3L3,9.8z"/>
</svg>
