<?xml version="1.0" encoding="utf-8"?>
<!-- Generator: Adobe Illustrator 26.3.1, SVG Export Plug-In . SVG Version: 6.00 Build 0)  -->
<svg version="1.1" id="레이어_1" xmlns="http://www.w3.org/2000/svg" xmlns:xlink="http://www.w3.org/1999/xlink" x="0px"
	 y="0px" viewBox="0 0 10 20" style="enable-background:new 0 0 10 20;" xml:space="preserve">
<style type="text/css">
	.st0{fill:#C4C4C4;}
</style>
<path class="st0" d="M7,9.8c0.1,0.1,0.1,0.2,0,0.3l-5.9,6.1c-0.1,0.1-0.2,0.2-0.2,0.3c0,0.1,0,0.2,0,0.4v2.4c0,0.3,0,0.5,0.1,0.5
	c0.1,0,0.3-0.1,0.5-0.4l7.8-8.2C9.4,11.1,9.5,11,9.5,11c0,0,0-0.1,0-0.3V9.3c0-0.2,0-0.3,0-0.3c0-0.1-0.1-0.2-0.2-0.3L1.5,0.5
	C1.2,0.2,1.1,0.1,1,0.1c-0.1,0-0.1,0.2-0.1,0.5V3c0,0.2,0,0.4,0,0.4c0,0.1,0.1,0.2,0.2,0.3L7,9.8z"/>
</svg>
