<svg width="10" height="20" viewBox="0 0 10 20" fill="none" xmlns="http://www.w3.org/2000/svg">
<path d="M3 9.82C2.92 9.92667 2.92 10.0267 3 10.12L8.94 16.24C9.04667 16.3467 9.11333 16.4333 9.14 16.5C9.16667 16.58 9.18 16.7267 9.18 16.94V19.34C9.18 19.6733 9.13333 19.8467 9.04 19.86C8.94667 19.8733 8.76667 19.74 8.5 19.46L0.66 11.22C0.553333 11.1 0.486667 11.02 0.46 10.98C0.446667 10.94 0.44 10.8467 0.44 10.7V9.3C0.44 9.14 0.446667 9.03333 0.46 8.98C0.486667 8.91333 0.553333 8.82667 0.66 8.72L8.5 0.48C8.76667 0.199999 8.94667 0.0666656 9.04 0.0799987C9.13333 0.0933327 9.18 0.266666 9.18 0.599999V3C9.18 3.21333 9.16667 3.36 9.14 3.44C9.11333 3.50667 9.04667 3.59333 8.94 3.7L3 9.82Z" fill="#C4C4C4"/>
</svg>
