<svg width="10" height="20" viewBox="0 0 10 20" fill="none" xmlns="http://www.w3.org/2000/svg">
<path d="M7 9.82C7.08 9.92667 7.08 10.0267 7 10.12L1.06 16.24C0.953333 16.3467 0.886667 16.4333 0.859999 16.5C0.833333 16.58 0.82 16.7267 0.82 16.94V19.34C0.82 19.6733 0.866666 19.8467 0.959999 19.86C1.05333 19.8733 1.23333 19.74 1.5 19.46L9.34 11.22C9.44667 11.1 9.51333 11.02 9.54 10.98C9.55333 10.94 9.56 10.8467 9.56 10.7V9.3C9.56 9.14 9.55333 9.03333 9.54 8.98C9.51333 8.91333 9.44667 8.82667 9.34 8.72L1.5 0.48C1.23333 0.199999 1.05333 0.0666656 0.959999 0.0799987C0.866666 0.0933327 0.82 0.266666 0.82 0.599999V3C0.82 3.21333 0.833333 3.36 0.859999 3.44C0.886667 3.50667 0.953333 3.59333 1.06 3.7L7 9.82Z" fill="#5E5E5E"/>
</svg>
