<svg width="353" height="246" viewBox="0 0 353 246" fill="none" xmlns="http://www.w3.org/2000/svg">
<circle cx="230" cy="123" r="123" fill="#FFEFAB"/>
<path d="M72.2812 113.023L69.4688 130.25C68.625 135.453 67.3359 140.68 65.6016 145.93C63.9141 151.133 61.6172 155.914 58.7109 160.273C55.8516 164.586 52.2188 168.055 47.8125 170.68C43.4062 173.258 38.1328 174.5 31.9922 174.406C27.1172 174.359 23.0859 173.422 19.8984 171.594C16.7109 169.766 14.2031 167.328 12.375 164.281C10.5469 161.188 9.25781 157.742 8.50781 153.945C7.75781 150.102 7.40625 146.141 7.45312 142.062C7.5 137.984 7.80469 134.047 8.36719 130.25L11.1797 113.023C11.9766 107.82 13.2422 102.617 14.9766 97.4141C16.7109 92.2109 19.0312 87.4766 21.9375 83.2109C24.8438 78.9453 28.4766 75.5234 32.8359 72.9453C37.2422 70.3672 42.4922 69.1016 48.5859 69.1484C53.4609 69.1953 57.4922 70.1328 60.6797 71.9609C63.9141 73.7422 66.4453 76.1562 68.2734 79.2031C70.1016 82.25 71.3906 85.6719 72.1406 89.4688C72.8906 93.2188 73.2422 97.1328 73.1953 101.211C73.1484 105.242 72.8438 109.18 72.2812 113.023ZM61.1016 131.234L64.2656 111.898C64.6406 109.133 64.9219 106.18 65.1094 103.039C65.2969 99.8516 65.2266 96.7109 64.8984 93.6172C64.5703 90.5234 63.7969 87.6875 62.5781 85.1094C61.4062 82.4844 59.6719 80.3984 57.375 78.8516C55.0781 77.2578 52.0781 76.4141 48.375 76.3203C43.5469 76.2266 39.4453 77.2812 36.0703 79.4844C32.7422 81.6875 29.9766 84.5703 27.7734 88.1328C25.5703 91.6953 23.8125 95.5859 22.5 99.8047C21.1875 103.977 20.2031 108.031 19.5469 111.969L16.4531 131.234C16.0781 133.906 15.7969 136.836 15.6094 140.023C15.4219 143.211 15.4922 146.398 15.8203 149.586C16.1953 152.727 16.9688 155.633 18.1406 158.305C19.3125 160.93 21.0234 163.062 23.2734 164.703C25.5703 166.297 28.5703 167.141 32.2734 167.234C37.1016 167.328 41.2031 166.25 44.5781 164C47.9531 161.75 50.7422 158.82 52.9453 155.211C55.1484 151.555 56.8828 147.617 58.1484 143.398C59.4609 139.18 60.4453 135.125 61.1016 131.234ZM143.648 165.758L142.523 173H80.2969L81.2812 166.18L119.391 128.422C122.203 125.609 125.156 122.586 128.25 119.352C131.391 116.117 134.133 112.648 136.477 108.945C138.867 105.242 140.391 101.305 141.047 97.1328C141.609 93.1484 141.281 89.6094 140.062 86.5156C138.891 83.4219 136.922 80.9844 134.156 79.2031C131.391 77.375 127.945 76.4375 123.82 76.3906C119.133 76.3438 114.961 77.375 111.305 79.4844C107.695 81.5938 104.719 84.4531 102.375 88.0625C100.078 91.6719 98.5547 95.6797 97.8047 100.086H89.6484C90.4453 94.2266 92.4141 88.9531 95.5547 84.2656C98.6953 79.5781 102.703 75.8984 107.578 73.2266C112.5 70.5078 117.984 69.1719 124.031 69.2188C129.469 69.2656 134.203 70.3906 138.234 72.5938C142.312 74.7969 145.359 77.9375 147.375 82.0156C149.391 86.0938 150.07 90.8984 149.414 96.4297C148.992 100.133 147.938 103.695 146.25 107.117C144.562 110.492 142.5 113.75 140.062 116.891C137.672 119.984 135.117 122.938 132.398 125.75C129.68 128.516 127.055 131.141 124.523 133.625L91.8281 165.758H143.648Z" fill="#005FA8"/>
</svg>
