<svg width="40" height="34" viewBox="0 0 40 34" fill="none" xmlns="http://www.w3.org/2000/svg">
<path d="M10.208 33.944C7.072 33.944 4.576 32.92 2.72 30.872C0.928 28.76 0.0320003 26.072 0.0320003 22.808C0.0320003 17.56 1.536 13.048 4.544 9.272C7.616 5.496 11.616 2.712 16.544 0.919998L17.888 3.608C13.856 5.08 10.592 7.224 8.096 10.04C5.664 12.792 4.448 15.704 4.448 18.776C4.448 19.224 4.576 19.64 4.832 20.024C5.152 20.344 5.568 20.504 6.08 20.504C6.592 20.504 7.36 20.248 8.384 19.736C9.536 19.16 10.624 18.872 11.648 18.872C13.44 18.872 15.008 19.48 16.352 20.696C17.76 21.912 18.464 23.608 18.464 25.784C18.464 28.344 17.632 30.36 15.968 31.832C14.304 33.24 12.384 33.944 10.208 33.944ZM31.328 33.944C28.192 33.944 25.696 32.92 23.84 30.872C22.048 28.76 21.152 26.072 21.152 22.808C21.152 17.56 22.656 13.048 25.664 9.272C28.736 5.496 32.736 2.712 37.664 0.919998L39.008 3.608C34.976 5.08 31.712 7.224 29.216 10.04C26.784 12.792 25.568 15.704 25.568 18.776C25.568 19.224 25.696 19.64 25.952 20.024C26.272 20.344 26.688 20.504 27.2 20.504C27.712 20.504 28.48 20.248 29.504 19.736C30.656 19.16 31.744 18.872 32.768 18.872C34.56 18.872 36.128 19.48 37.472 20.696C38.88 21.912 39.584 23.608 39.584 25.784C39.584 28.344 38.752 30.36 37.088 31.832C35.424 33.24 33.504 33.944 31.328 33.944Z" fill="#474747"/>
</svg>
