<svg width="361" height="246" viewBox="0 0 361 246" fill="none" xmlns="http://www.w3.org/2000/svg">
<path d="M278.281 120.023L275.469 137.25C274.625 142.453 273.336 147.68 271.602 152.93C269.914 158.133 267.617 162.914 264.711 167.273C261.852 171.586 258.219 175.055 253.812 177.68C249.406 180.258 244.133 181.5 237.992 181.406C233.117 181.359 229.086 180.422 225.898 178.594C222.711 176.766 220.203 174.328 218.375 171.281C216.547 168.188 215.258 164.742 214.508 160.945C213.758 157.102 213.406 153.141 213.453 149.062C213.5 144.984 213.805 141.047 214.367 137.25L217.18 120.023C217.977 114.82 219.242 109.617 220.977 104.414C222.711 99.2109 225.031 94.4766 227.938 90.2109C230.844 85.9453 234.477 82.5234 238.836 79.9453C243.242 77.3672 248.492 76.1016 254.586 76.1484C259.461 76.1953 263.492 77.1328 266.68 78.9609C269.914 80.7422 272.445 83.1562 274.273 86.2031C276.102 89.25 277.391 92.6719 278.141 96.4688C278.891 100.219 279.242 104.133 279.195 108.211C279.148 112.242 278.844 116.18 278.281 120.023ZM267.102 138.234L270.266 118.898C270.641 116.133 270.922 113.18 271.109 110.039C271.297 106.852 271.227 103.711 270.898 100.617C270.57 97.5234 269.797 94.6875 268.578 92.1094C267.406 89.4844 265.672 87.3984 263.375 85.8516C261.078 84.2578 258.078 83.4141 254.375 83.3203C249.547 83.2266 245.445 84.2812 242.07 86.4844C238.742 88.6875 235.977 91.5703 233.773 95.1328C231.57 98.6953 229.812 102.586 228.5 106.805C227.188 110.977 226.203 115.031 225.547 118.969L222.453 138.234C222.078 140.906 221.797 143.836 221.609 147.023C221.422 150.211 221.492 153.398 221.82 156.586C222.195 159.727 222.969 162.633 224.141 165.305C225.312 167.93 227.023 170.062 229.273 171.703C231.57 173.297 234.57 174.141 238.273 174.234C243.102 174.328 247.203 173.25 250.578 171C253.953 168.75 256.742 165.82 258.945 162.211C261.148 158.555 262.883 154.617 264.148 150.398C265.461 146.18 266.445 142.125 267.102 138.234ZM341.07 77.2031L323.562 180H315.336L331.297 88.1016L302.539 98.2266L303.945 90.0703L339.523 77.2031H341.07Z" fill="#E2EFFF"/>
<mask id="mask0_276_245" style="mask-type:alpha" maskUnits="userSpaceOnUse" x="0" y="0" width="246" height="246">
<circle cx="123" cy="123" r="123" fill="#E2EFFF"/>
</mask>
<g mask="url(#mask0_276_245)">
<circle cx="123" cy="123" r="123" fill="#E2EFFF"/>
<path d="M278.281 120.023L275.469 137.25C274.625 142.453 273.336 147.68 271.602 152.93C269.914 158.133 267.617 162.914 264.711 167.273C261.852 171.586 258.219 175.055 253.812 177.68C249.406 180.258 244.133 181.5 237.992 181.406C233.117 181.359 229.086 180.422 225.898 178.594C222.711 176.766 220.203 174.328 218.375 171.281C216.547 168.188 215.258 164.742 214.508 160.945C213.758 157.102 213.406 153.141 213.453 149.062C213.5 144.984 213.805 141.047 214.367 137.25L217.18 120.023C217.977 114.82 219.242 109.617 220.977 104.414C222.711 99.2109 225.031 94.4766 227.938 90.2109C230.844 85.9453 234.477 82.5234 238.836 79.9453C243.242 77.3672 248.492 76.1016 254.586 76.1484C259.461 76.1953 263.492 77.1328 266.68 78.9609C269.914 80.7422 272.445 83.1562 274.273 86.2031C276.102 89.25 277.391 92.6719 278.141 96.4688C278.891 100.219 279.242 104.133 279.195 108.211C279.148 112.242 278.844 116.18 278.281 120.023ZM267.102 138.234L270.266 118.898C270.641 116.133 270.922 113.18 271.109 110.039C271.297 106.852 271.227 103.711 270.898 100.617C270.57 97.5234 269.797 94.6875 268.578 92.1094C267.406 89.4844 265.672 87.3984 263.375 85.8516C261.078 84.2578 258.078 83.4141 254.375 83.3203C249.547 83.2266 245.445 84.2812 242.07 86.4844C238.742 88.6875 235.977 91.5703 233.773 95.1328C231.57 98.6953 229.812 102.586 228.5 106.805C227.188 110.977 226.203 115.031 225.547 118.969L222.453 138.234C222.078 140.906 221.797 143.836 221.609 147.023C221.422 150.211 221.492 153.398 221.82 156.586C222.195 159.727 222.969 162.633 224.141 165.305C225.312 167.93 227.023 170.062 229.273 171.703C231.57 173.297 234.57 174.141 238.273 174.234C243.102 174.328 247.203 173.25 250.578 171C253.953 168.75 256.742 165.82 258.945 162.211C261.148 158.555 262.883 154.617 264.148 150.398C265.461 146.18 266.445 142.125 267.102 138.234ZM341.07 77.2031L323.562 180H315.336L331.297 88.1016L302.539 98.2266L303.945 90.0703L339.523 77.2031H341.07Z" fill="white"/>
</g>
</svg>
