<svg width="361" height="246" viewBox="0 0 361 246" fill="none" xmlns="http://www.w3.org/2000/svg">
<path d="M278.281 120.023L275.469 137.25C274.625 142.453 273.336 147.68 271.602 152.93C269.914 158.133 267.617 162.914 264.711 167.273C261.852 171.586 258.219 175.055 253.812 177.68C249.406 180.258 244.133 181.5 237.992 181.406C233.117 181.359 229.086 180.422 225.898 178.594C222.711 176.766 220.203 174.328 218.375 171.281C216.547 168.188 215.258 164.742 214.508 160.945C213.758 157.102 213.406 153.141 213.453 149.062C213.5 144.984 213.805 141.047 214.367 137.25L217.18 120.023C217.977 114.82 219.242 109.617 220.977 104.414C222.711 99.2109 225.031 94.4766 227.938 90.2109C230.844 85.9453 234.477 82.5234 238.836 79.9453C243.242 77.3672 248.492 76.1016 254.586 76.1484C259.461 76.1953 263.492 77.1328 266.68 78.9609C269.914 80.7422 272.445 83.1562 274.273 86.2031C276.102 89.25 277.391 92.6719 278.141 96.4688C278.891 100.219 279.242 104.133 279.195 108.211C279.148 112.242 278.844 116.18 278.281 120.023ZM267.102 138.234L270.266 118.898C270.641 116.133 270.922 113.18 271.109 110.039C271.297 106.852 271.227 103.711 270.898 100.617C270.57 97.5234 269.797 94.6875 268.578 92.1094C267.406 89.4844 265.672 87.3984 263.375 85.8516C261.078 84.2578 258.078 83.4141 254.375 83.3203C249.547 83.2266 245.445 84.2812 242.07 86.4844C238.742 88.6875 235.977 91.5703 233.773 95.1328C231.57 98.6953 229.812 102.586 228.5 106.805C227.188 110.977 226.203 115.031 225.547 118.969L222.453 138.234C222.078 140.906 221.797 143.836 221.609 147.023C221.422 150.211 221.492 153.398 221.82 156.586C222.195 159.727 222.969 162.633 224.141 165.305C225.312 167.93 227.023 170.062 229.273 171.703C231.57 173.297 234.57 174.141 238.273 174.234C243.102 174.328 247.203 173.25 250.578 171C253.953 168.75 256.742 165.82 258.945 162.211C261.148 158.555 262.883 154.617 264.148 150.398C265.461 146.18 266.445 142.125 267.102 138.234ZM313.156 124.172L321.102 124.242C325.273 124.148 329.258 123.352 333.055 121.852C336.898 120.352 340.133 118.125 342.758 115.172C345.43 112.219 347.07 108.516 347.68 104.062C348.289 99.9844 347.984 96.4219 346.766 93.375C345.547 90.2812 343.555 87.8672 340.789 86.1328C338.023 84.3516 334.555 83.4375 330.383 83.3906C326.07 83.3438 322.156 84.2109 318.641 85.9922C315.125 87.7734 312.195 90.2578 309.852 93.4453C307.555 96.5859 306.008 100.242 305.211 104.414H297.055C297.852 98.8359 299.82 93.9141 302.961 89.6484C306.148 85.3828 310.156 82.0781 314.984 79.7344C319.812 77.3438 325.039 76.1719 330.664 76.2188C336.195 76.2188 340.977 77.4141 345.008 79.8047C349.039 82.1484 352.039 85.4297 354.008 89.6484C355.977 93.8672 356.633 98.7656 355.977 104.344C355.508 108.516 354.195 112.195 352.039 115.383C349.93 118.523 347.258 121.172 344.023 123.328C340.836 125.438 337.344 127.055 333.547 128.18C329.75 129.258 325.93 129.82 322.086 129.867L312.312 129.797L313.156 124.172ZM312.031 131.414L312.875 125.859H321.664C325.742 125.953 329.586 126.516 333.195 127.547C336.852 128.578 340.039 130.148 342.758 132.258C345.523 134.32 347.586 136.992 348.945 140.273C350.352 143.508 350.797 147.398 350.281 151.945C349.766 156.445 348.523 160.523 346.555 164.18C344.633 167.789 342.125 170.883 339.031 173.461C335.938 176.039 332.422 178.031 328.484 179.438C324.547 180.797 320.352 181.453 315.898 181.406C311.586 181.359 307.648 180.633 304.086 179.227C300.523 177.82 297.453 175.852 294.875 173.32C292.344 170.742 290.445 167.672 289.18 164.109C287.961 160.5 287.539 156.516 287.914 152.156L296.07 152.227C295.648 156.539 296.211 160.336 297.758 163.617C299.352 166.898 301.719 169.477 304.859 171.352C308.047 173.18 311.797 174.117 316.109 174.164C320.703 174.211 324.828 173.344 328.484 171.562C332.188 169.781 335.211 167.25 337.555 163.969C339.945 160.641 341.445 156.703 342.055 152.156C342.711 147.375 342.148 143.484 340.367 140.484C338.586 137.438 335.961 135.188 332.492 133.734C329.07 132.281 325.18 131.531 320.82 131.484L312.031 131.414Z" fill="#C1D6FF"/>
<mask id="mask0_276_243" style="mask-type:alpha" maskUnits="userSpaceOnUse" x="0" y="0" width="246" height="246">
<circle cx="123" cy="123" r="123" fill="#E2EFFF"/>
</mask>
<g mask="url(#mask0_276_243)">
<circle cx="123" cy="123" r="123" fill="#005FA8"/>
<path d="M278.281 120.023L275.469 137.25C274.625 142.453 273.336 147.68 271.602 152.93C269.914 158.133 267.617 162.914 264.711 167.273C261.852 171.586 258.219 175.055 253.812 177.68C249.406 180.258 244.133 181.5 237.992 181.406C233.117 181.359 229.086 180.422 225.898 178.594C222.711 176.766 220.203 174.328 218.375 171.281C216.547 168.188 215.258 164.742 214.508 160.945C213.758 157.102 213.406 153.141 213.453 149.062C213.5 144.984 213.805 141.047 214.367 137.25L217.18 120.023C217.977 114.82 219.242 109.617 220.977 104.414C222.711 99.2109 225.031 94.4766 227.938 90.2109C230.844 85.9453 234.477 82.5234 238.836 79.9453C243.242 77.3672 248.492 76.1016 254.586 76.1484C259.461 76.1953 263.492 77.1328 266.68 78.9609C269.914 80.7422 272.445 83.1562 274.273 86.2031C276.102 89.25 277.391 92.6719 278.141 96.4688C278.891 100.219 279.242 104.133 279.195 108.211C279.148 112.242 278.844 116.18 278.281 120.023ZM267.102 138.234L270.266 118.898C270.641 116.133 270.922 113.18 271.109 110.039C271.297 106.852 271.227 103.711 270.898 100.617C270.57 97.5234 269.797 94.6875 268.578 92.1094C267.406 89.4844 265.672 87.3984 263.375 85.8516C261.078 84.2578 258.078 83.4141 254.375 83.3203C249.547 83.2266 245.445 84.2812 242.07 86.4844C238.742 88.6875 235.977 91.5703 233.773 95.1328C231.57 98.6953 229.812 102.586 228.5 106.805C227.188 110.977 226.203 115.031 225.547 118.969L222.453 138.234C222.078 140.906 221.797 143.836 221.609 147.023C221.422 150.211 221.492 153.398 221.82 156.586C222.195 159.727 222.969 162.633 224.141 165.305C225.312 167.93 227.023 170.062 229.273 171.703C231.57 173.297 234.57 174.141 238.273 174.234C243.102 174.328 247.203 173.25 250.578 171C253.953 168.75 256.742 165.82 258.945 162.211C261.148 158.555 262.883 154.617 264.148 150.398C265.461 146.18 266.445 142.125 267.102 138.234ZM341.07 77.2031L323.562 180H315.336L331.297 88.1016L302.539 98.2266L303.945 90.0703L339.523 77.2031H341.07Z" fill="white"/>
</g>
</svg>
