<svg width="11" height="24" viewBox="0 0 11 24" fill="none" xmlns="http://www.w3.org/2000/svg">
<path d="M0.728 23.056C0.52 23.28 0.392 23.384 0.344 23.368C0.296 23.352 0.272 23.184 0.272 22.864V20.584C0.272 20.424 0.272 20.296 0.272 20.2C0.288 20.104 0.304 20.024 0.32 19.96C0.352 19.896 0.4 19.824 0.464 19.744C0.528 19.68 0.608 19.592 0.704 19.48L7.64 12.088C7.784 11.928 7.856 11.8 7.856 11.704C7.872 11.608 7.816 11.496 7.688 11.368L0.704 4.072C0.592 3.96 0.504 3.872 0.44 3.808C0.392 3.728 0.352 3.656 0.32 3.592C0.304 3.512 0.288 3.432 0.272 3.352C0.272 3.256 0.272 3.128 0.272 2.968V0.688C0.272 0.367999 0.296 0.199999 0.344 0.183999C0.392 0.167999 0.52 0.271999 0.728 0.495999L10.208 10.36C10.368 10.52 10.464 10.64 10.496 10.72C10.528 10.8 10.544 10.968 10.544 11.224V12.328C10.544 12.584 10.528 12.752 10.496 12.832C10.464 12.912 10.368 13.032 10.208 13.192L0.728 23.056Z" fill="#E1E1E1"/>
</svg>
