<svg width="10" height="21" viewBox="0 0 10 21" fill="none" xmlns="http://www.w3.org/2000/svg">
<path d="M3 10.7C2.92 10.8067 2.92 10.9067 3 11L8.94 17.12C9.04667 17.2267 9.11333 17.32 9.14 17.4C9.16667 17.4667 9.18 17.6067 9.18 17.82V20.22C9.18 20.5533 9.13333 20.7267 9.04 20.74C8.94667 20.7533 8.76667 20.62 8.5 20.34L0.66 12.1C0.553333 11.98 0.486667 11.9 0.46 11.86C0.446667 11.82 0.44 11.7267 0.44 11.58V10.18C0.44 10.02 0.446667 9.91333 0.46 9.86C0.486667 9.79333 0.553333 9.70667 0.66 9.6L8.5 1.36C8.76667 1.08 8.94667 0.946666 9.04 0.959999C9.13333 0.973333 9.18 1.14667 9.18 1.48V3.88C9.18 4.09333 9.16667 4.24 9.14 4.32C9.11333 4.38667 9.04667 4.47333 8.94 4.58L3 10.7Z" fill="white"/>
</svg>
