<svg width="10" height="21" viewBox="0 0 10 21" fill="none" xmlns="http://www.w3.org/2000/svg">
<path d="M7 10.7C7.08 10.8067 7.08 10.9067 7 11L1.06 17.12C0.953333 17.2267 0.886667 17.32 0.859999 17.4C0.833333 17.4667 0.82 17.6067 0.82 17.82V20.22C0.82 20.5533 0.866666 20.7267 0.959999 20.74C1.05333 20.7533 1.23333 20.62 1.5 20.34L9.34 12.1C9.44667 11.98 9.51333 11.9 9.54 11.86C9.55333 11.82 9.56 11.7267 9.56 11.58V10.18C9.56 10.02 9.55333 9.91333 9.54 9.86C9.51333 9.79333 9.44667 9.70667 9.34 9.6L1.5 1.36C1.23333 1.08 1.05333 0.946666 0.959999 0.959999C0.866666 0.973333 0.82 1.14667 0.82 1.48V3.88C0.82 4.09333 0.833333 4.24 0.859999 4.32C0.886667 4.38667 0.953333 4.47333 1.06 4.58L7 10.7Z" fill="white"/>
</svg>
